<svg xmlns="http://www.w3.org/2000/svg" viewBox="0 0 960 620" font-family="system-ui,-apple-system,sans-serif"><defs><style>.state-covered{fill:#dcfce7;stroke:#16a34a;stroke-width:2}.state-default{fill:#f5f5f5;stroke:#d4d4d4;stroke-width:1}.label{font-size:11px;font-weight:700;text-anchor:middle;pointer-events:none}.label-covered{fill:#15803d}.label-default{fill:#a3a3a3}.rules-count{font-size:9px;font-weight:400;fill:#16a34a;text-anchor:middle}</style></defs><rect width="960" height="620" fill="white" rx="12"/><text x="480" y="30" text-anchor="middle" font-size="15" font-weight="700" fill="#171717">Shift Comply: US Coverage</text><text x="480" y="48" text-anchor="middle" font-size="11" fill="#737373">17 federal rules inherited by all states | 111 total rules across 9 jurisdictions</text><path d="M450,60 L520,55 L525,140 L450,145 L450,60Z" class="state-default"/><text x="225" y="100" class="label label-default">MN</text><path d="M580,265 L670,245 L690,275 L600,290 L580,265Z" class="state-default"/><text x="290" y="270" class="label label-default">KY</text><path d="M800,200 L812,198 L814,225 L802,227 L800,200Z" class="state-default"/><text x="400" y="212" class="label label-default">DE</text><path d="M240,230 L330,225 L335,295 L240,300 L240,230Z" class="state-default"/><text x="120" y="262" class="label label-default">CO</text><path d="M470,310 L545,305 L550,370 L475,375 L470,310Z" class="state-default"/><text x="235" y="340" class="label label-default">AR</text><path d="M670,220 L700,215 L705,260 L680,265 L670,220Z" class="state-default"/><text x="335" y="240" class="label label-default">WV</text><path d="M185,190 L230,185 L235,280 L190,285 L175,260 L185,190Z" class="state-default"/><text x="92" y="235" class="label label-default">UT</text><path d="M340,310 L455,305 L465,345 L430,340 L350,340 L340,310Z" class="state-default"/><text x="170" y="327" class="label label-default">OK</text><path d="M570,290 L695,280 L700,310 L575,320 L570,290Z" class="state-default"/><text x="285" y="300" class="label label-default">TN</text><path d="M820,145 L845,140 L848,162 L823,165 L820,145Z" class="state-default"/><text x="410" y="153" class="label label-default">CT</text><path d="M825,125 L870,118 L875,140 L830,145 L825,125Z" class="state-default"/><text x="412" y="132" class="label label-default">MA</text><path d="M855,140 L867,138 L868,155 L856,157 L855,140Z" class="state-default"/><text x="427" y="147" class="label label-default">RI</text><path d="M640,380 L680,370 L710,385 L720,420 L700,470 L670,490 L650,470 L640,440 L635,400 L640,380Z" class="state-covered"/><text x="320" y="382" class="label label-covered">FL</text><text x="320" y="394" class="rules-count">6 rules</text><path d="M65,115 L160,110 L155,175 L115,185 L55,165 L50,135 L65,115Z" class="state-default"/><text x="32" y="145" class="label label-default">OR</text><path d="M170,75 L210,70 L215,180 L185,190 L160,170 L165,110 L170,75Z" class="state-default"/><text x="85" y="127" class="label label-default">ID</text><path d="M230,120 L330,115 L335,195 L235,200 L230,120Z" class="state-default"/><text x="115" y="157" class="label label-default">WY</text><path d="M340,55 L445,55 L445,110 L340,110 L340,55Z" class="state-default"/><text x="170" y="82" class="label label-default">ND</text><path d="M340,115 L445,115 L445,175 L340,175 L340,115Z" class="state-default"/><text x="170" y="145" class="label label-default">SD</text><path d="M520,65 L575,60 L585,145 L530,150 L520,65Z" class="state-default"/><text x="260" y="105" class="label label-default">WI</text><path d="M645,310 L700,305 L710,380 L680,395 L650,395 L645,310Z" class="state-default"/><text x="322" y="345" class="label label-default">GA</text><path d="M130,180 L165,175 L175,300 L120,270 L100,210 L130,180Z" class="state-default"/><text x="65" y="240" class="label label-default">NV</text><path d="M140,340 L210,330 L225,420 L190,450 L130,440 L110,400 L115,360 L140,340Z" class="state-default"/><text x="70" y="380" class="label label-default">AZ</text><path d="M340,240 L450,235 L455,300 L340,305 L340,240Z" class="state-default"/><text x="170" y="270" class="label label-default">KS</text><path d="M460,220 L545,215 L555,300 L470,305 L460,220Z" class="state-default"/><text x="230" y="260" class="label label-default">MO</text><path d="M555,325 L580,320 L590,400 L560,410 L555,325Z" class="state-default"/><text x="277" y="362" class="label label-default">MS</text><path d="M595,320 L640,315 L650,400 L630,410 L595,400 L595,320Z" class="state-default"/><text x="297" y="360" class="label label-default">AL</text><path d="M690,270 L790,250 L800,280 L710,295 L690,270Z" class="state-default"/><text x="345" y="275" class="label label-default">NC</text><path d="M795,170 L810,165 L815,205 L800,210 L795,170Z" class="state-default"/><text x="397" y="187" class="label label-default">NJ</text><path d="M810,120 L830,115 L850,130 L845,155 L830,170 L800,175 L785,160 L780,140 L790,125 L810,120Z" class="state-covered"/><text x="405" y="125" class="label label-covered">NY</text><text x="405" y="137" class="rules-count">12 rules</text><path d="M100,60 L155,55 L160,110 L100,115 L90,90 L100,60Z" class="state-default"/><text x="50" y="85" class="label label-default">WA</text><path d="M450,150 L530,145 L535,210 L455,215 L450,150Z" class="state-default"/><text x="225" y="180" class="label label-default">IA</text><path d="M480,380 L540,375 L560,430 L520,450 L480,430 L480,380Z" class="state-default"/><text x="240" y="405" class="label label-default">LA</text><path d="M585,155 L620,150 L625,250 L590,255 L585,155Z" class="state-default"/><text x="292" y="202" class="label label-default">IN</text><path d="M625,155 L670,150 L675,235 L630,240 L625,155Z" class="state-default"/><text x="312" y="195" class="label label-default">OH</text><path d="M560,65 L620,55 L625,140 L585,145 L575,100 L560,65Z" class="state-default"/><text x="280" y="102" class="label label-default">MI</text><path d="M680,235 L780,210 L790,245 L700,265 L680,235Z" class="state-default"/><text x="340" y="240" class="label label-default">VA</text><path d="M122,270 L118,380 L133,400 L133,410 L100,500 L60,490 L50,400 L55,350 L65,280 L80,230 L100,210 L122,270Z" class="state-covered"/><text x="61" y="335" class="label label-covered">CA</text><text x="61" y="347" class="rules-count">32 rules</text><path d="M225,335 L310,330 L315,430 L225,435 L225,335Z" class="state-default"/><text x="112" y="382" class="label label-default">NM</text><path d="M215,55 L335,50 L340,115 L215,120 L210,70 L215,55Z" class="state-default"/><text x="107" y="85" class="label label-default">MT</text><path d="M340,180 L445,180 L450,230 L335,235 L340,180Z" class="state-default"/><text x="170" y="205" class="label label-default">NE</text><path d="M350,340 L430,340 L460,350 L480,380 L470,430 L450,470 L410,490 L370,480 L340,460 L310,430 L310,390 L320,360 L350,340Z" class="state-covered"/><text x="175" y="345" class="label label-covered">TX</text><text x="175" y="357" class="rules-count">6 rules</text><path d="M545,155 L580,150 L590,260 L555,265 L545,155Z" class="state-default"/><text x="272" y="207" class="label label-default">IL</text><path d="M700,300 L745,285 L750,320 L715,340 L700,300Z" class="state-default"/><text x="350" y="310" class="label label-default">SC</text><path d="M700,155 L790,140 L795,185 L710,195 L700,155Z" class="state-default"/><text x="350" y="170" class="label label-default">PA</text><path d="M810,80 L825,78 L828,120 L813,122 L810,80Z" class="state-default"/><text x="405" y="100" class="label label-default">VT</text><path d="M830,75 L843,73 L847,118 L832,120 L830,75Z" class="state-default"/><text x="415" y="96" class="label label-default">NH</text><path d="M850,40 L880,35 L885,100 L855,105 L850,40Z" class="state-default"/><text x="425" y="70" class="label label-default">ME</text><path d="M740,210 L790,200 L795,225 L745,232 L740,210Z" class="state-default"/><text x="370" y="217" class="label label-default">MD</text><rect x="30" y="560" width="900" height="45" rx="6" fill="#fafafa" stroke="#e5e5e5"/><rect x="50" y="576" width="16" height="16" rx="3" fill="#dcfce7" stroke="#16a34a" stroke-width="1.5"/><text x="72" y="589" font-size="11" fill="#525252">Covered (state-specific rules)</text><rect x="250" y="576" width="16" height="16" rx="3" fill="#f5f5f5" stroke="#d4d4d4"/><text x="272" y="589" font-size="11" fill="#a3a3a3">Federal rules only (no state-specific)</text><text x="900" y="589" text-anchor="end" font-size="10" fill="#a3a3a3">Regenerate: go run ./cmd/genmap > assets/us-coverage.svg</text></svg>