<svg xmlns="http://www.w3.org/2000/svg" viewBox="0 0 800 520" font-family="system-ui,-apple-system,sans-serif"><rect width="800" height="520" fill="#fafafa" rx="12"/><text x="400" y="35" text-anchor="middle" font-size="16" font-weight="700" fill="#171717">Shift Comply Coverage</text><text x="400" y="55" text-anchor="middle" font-size="12" fill="#737373">111 rules across 9 jurisdictions</text><rect x="60" y="70" width="700" height="380" rx="8" fill="white" stroke="#e5e5e5" stroke-width="1"/><text x="400" y="95" text-anchor="middle" font-size="11" fill="#a3a3a3" font-weight="600" letter-spacing="2">UNITED STATES · 17 FEDERAL RULES (ALL STATES INHERIT)</text><circle cx="700" cy="150" r="28" fill="#ecfdf5" stroke="#10b981" stroke-width="2"/><text x="700" y="146" text-anchor="middle" font-size="13" font-weight="700" fill="#059669">NY</text><text x="700" y="160" text-anchor="middle" font-size="9" fill="#059669">12 rules</text><circle cx="620" cy="410" r="28" fill="#ecfdf5" stroke="#10b981" stroke-width="2"/><text x="620" y="406" text-anchor="middle" font-size="13" font-weight="700" fill="#059669">FL</text><text x="620" y="420" text-anchor="middle" font-size="9" fill="#059669">6 rules</text><circle cx="730" cy="130" r="22" fill="none" stroke="#d4d4d4" stroke-width="1" stroke-dasharray="4,3"/><text x="730" y="134" text-anchor="middle" font-size="11" fill="#d4d4d4">MA</text><circle cx="105" cy="140" r="22" fill="none" stroke="#d4d4d4" stroke-width="1" stroke-dasharray="4,3"/><text x="105" y="144" text-anchor="middle" font-size="11" fill="#d4d4d4">OR</text><circle cx="600" cy="340" r="22" fill="none" stroke="#d4d4d4" stroke-width="1" stroke-dasharray="4,3"/><text x="600" y="344" text-anchor="middle" font-size="11" fill="#d4d4d4">GA</text><circle cx="650" cy="290" r="22" fill="none" stroke="#d4d4d4" stroke-width="1" stroke-dasharray="4,3"/><text x="650" y="294" text-anchor="middle" font-size="11" fill="#d4d4d4">NC</text><circle cx="540" cy="150" r="22" fill="none" stroke="#d4d4d4" stroke-width="1" stroke-dasharray="4,3"/><text x="540" y="154" text-anchor="middle" font-size="11" fill="#d4d4d4">MI</text><circle cx="700" cy="190" r="22" fill="none" stroke="#d4d4d4" stroke-width="1" stroke-dasharray="4,3"/><text x="700" y="194" text-anchor="middle" font-size="11" fill="#d4d4d4">NJ</text><circle cx="430" cy="110" r="22" fill="none" stroke="#d4d4d4" stroke-width="1" stroke-dasharray="4,3"/><text x="430" y="114" text-anchor="middle" font-size="11" fill="#d4d4d4">MN</text><circle cx="290" cy="240" r="22" fill="none" stroke="#d4d4d4" stroke-width="1" stroke-dasharray="4,3"/><text x="290" y="244" text-anchor="middle" font-size="11" fill="#d4d4d4">CO</text><circle cx="380" cy="380" r="28" fill="#ecfdf5" stroke="#10b981" stroke-width="2"/><text x="380" y="376" text-anchor="middle" font-size="13" font-weight="700" fill="#059669">TX</text><text x="380" y="390" text-anchor="middle" font-size="9" fill="#059669">6 rules</text><circle cx="500" cy="210" r="22" fill="none" stroke="#d4d4d4" stroke-width="1" stroke-dasharray="4,3"/><text x="500" y="214" text-anchor="middle" font-size="11" fill="#d4d4d4">IL</text><circle cx="120" cy="80" r="22" fill="none" stroke="#d4d4d4" stroke-width="1" stroke-dasharray="4,3"/><text x="120" y="84" text-anchor="middle" font-size="11" fill="#d4d4d4">WA</text><circle cx="590" cy="200" r="22" fill="none" stroke="#d4d4d4" stroke-width="1" stroke-dasharray="4,3"/><text x="590" y="204" text-anchor="middle" font-size="11" fill="#d4d4d4">OH</text><circle cx="200" cy="330" r="22" fill="none" stroke="#d4d4d4" stroke-width="1" stroke-dasharray="4,3"/><text x="200" y="334" text-anchor="middle" font-size="11" fill="#d4d4d4">AZ</text><circle cx="95" cy="250" r="28" fill="#ecfdf5" stroke="#10b981" stroke-width="2"/><text x="95" y="246" text-anchor="middle" font-size="13" font-weight="700" fill="#059669">CA</text><text x="95" y="260" text-anchor="middle" font-size="9" fill="#059669">32 rules</text><circle cx="670" cy="180" r="22" fill="none" stroke="#d4d4d4" stroke-width="1" stroke-dasharray="4,3"/><text x="670" y="184" text-anchor="middle" font-size="11" fill="#d4d4d4">PA</text><circle cx="650" cy="250" r="22" fill="none" stroke="#d4d4d4" stroke-width="1" stroke-dasharray="4,3"/><text x="650" y="254" text-anchor="middle" font-size="11" fill="#d4d4d4">VA</text><rect x="60" y="462" width="340" height="48" rx="6" fill="white" stroke="#e5e5e5"/><text x="80" y="490" font-size="11" fill="#525252" font-weight="600">EU</text><text x="100" y="490" font-size="10" fill="#737373">8 rules</text><text x="170" y="490" font-size="11" fill="#525252" font-weight="600">Spain</text><text x="205" y="490" font-size="10" fill="#737373">21 rules</text><text x="270" y="490" font-size="11" fill="#525252" font-weight="600">CAT</text><text x="295" y="490" font-size="10" fill="#737373">6</text><text x="325" y="490" font-size="11" fill="#525252" font-weight="600">MAD</text><text x="355" y="490" font-size="10" fill="#737373">3</text><rect x="420" y="462" width="340" height="48" rx="6" fill="white" stroke="#e5e5e5"/><circle cx="440" cy="486" r="8" fill="#ecfdf5" stroke="#10b981" stroke-width="1.5"/><text x="455" y="490" font-size="10" fill="#737373">Covered jurisdiction</text><circle cx="580" cy="486" r="8" fill="none" stroke="#d4d4d4" stroke-width="1" stroke-dasharray="3,2"/><text x="595" y="490" font-size="10" fill="#d4d4d4">Planned</text></svg>